<svg xmlns="http://www.w3.org/2000/svg" viewBox="0 0 403 408" width="403" height="408" shape-rendering="geometricPrecision">
  <path d="M 166.0,2.0 L 160.0,3.0 L 155.0,4.0 L 151.0,5.0 L 142.0,8.0 L 136.0,11.0 L 126.0,16.0 L 123.0,18.0 L 120.0,20.0 L 116.0,23.0 L 108.0,30.0 L 105.0,33.0 L 99.0,40.0 L 96.0,44.0 L 94.0,47.0 L 91.0,52.0 L 85.0,64.0 L 83.0,69.0 L 82.0,72.0 L 79.0,73.0 L 76.0,73.0 L 67.0,76.0 L 62.0,78.0 L 58.0,80.0 L 52.0,83.0 L 43.0,89.0 L 39.0,92.0 L 23.0,108.0 L 20.0,112.0 L 18.0,115.0 L 15.0,120.0 L 9.0,132.0 L 7.0,137.0 L 6.0,140.0 L 5.0,143.0 L 4.0,147.0 L 3.0,151.0 L 2.0,157.0 L 2.0,186.0 L 3.0,192.0 L 4.0,196.0 L 6.0,203.0 L 7.0,206.0 L 9.0,211.0 L 11.0,215.0 L 14.0,221.0 L 17.0,226.0 L 19.0,229.0 L 21.0,232.0 L 25.0,236.0 L 27.0,239.0 L 27.0,243.0 L 25.0,248.0 L 24.0,253.0 L 23.0,258.0 L 23.0,284.0 L 24.0,290.0 L 25.0,295.0 L 26.0,299.0 L 29.0,308.0 L 31.0,313.0 L 34.0,319.0 L 37.0,324.0 L 43.0,333.0 L 48.0,339.0 L 58.0,349.0 L 62.0,352.0 L 66.0,355.0 L 69.0,357.0 L 72.0,359.0 L 86.0,366.0 L 95.0,369.0 L 102.0,371.0 L 108.0,372.0 L 116.0,373.0 L 134.0,373.0 L 142.0,371.0 L 146.0,371.0 L 157.0,382.0 L 161.0,385.0 L 170.0,391.0 L 177.0,395.0 L 182.0,397.0 L 187.0,399.0 L 190.0,400.0 L 193.0,401.0 L 197.0,402.0 L 202.0,403.0 L 207.0,404.0 L 217.0,405.0 L 227.0,405.0 L 236.0,404.0 L 242.0,403.0 L 246.0,402.0 L 250.0,401.0 L 259.0,398.0 L 264.0,396.0 L 272.0,392.0 L 284.0,384.0 L 290.0,379.0 L 297.0,372.0 L 303.0,365.0 L 306.0,361.0 L 309.0,356.0 L 312.0,351.0 L 315.0,345.0 L 317.0,338.0 L 318.0,336.0 L 320.0,334.0 L 322.0,333.0 L 329.0,332.0 L 332.0,331.0 L 337.0,329.0 L 349.0,323.0 L 354.0,320.0 L 357.0,318.0 L 360.0,316.0 L 367.0,309.0 L 368.0,309.0 L 374.0,303.0 L 379.0,297.0 L 385.0,288.0 L 389.0,281.0 L 390.0,279.0 L 393.0,272.0 L 396.0,264.0 L 397.0,260.0 L 398.0,255.0 L 399.0,249.0 L 400.0,240.0 L 400.0,229.0 L 399.0,220.0 L 398.0,214.0 L 397.0,209.0 L 393.0,197.0 L 390.0,191.0 L 385.0,181.0 L 380.0,174.0 L 376.0,170.0 L 374.0,167.0 L 374.0,163.0 L 376.0,159.0 L 377.0,154.0 L 378.0,149.0 L 379.0,138.0 L 379.0,131.0 L 378.0,120.0 L 377.0,115.0 L 376.0,111.0 L 375.0,107.0 L 372.0,98.0 L 369.0,91.0 L 368.0,89.0 L 367.0,87.0 L 363.0,80.0 L 361.0,77.0 L 358.0,73.0 L 354.0,68.0 L 343.0,57.0 L 339.0,54.0 L 335.0,51.0 L 332.0,49.0 L 329.0,47.0 L 317.0,41.0 L 312.0,39.0 L 309.0,38.0 L 306.0,37.0 L 302.0,36.0 L 298.0,35.0 L 293.0,34.0 L 285.0,33.0 L 269.0,33.0 L 260.0,35.0 L 255.0,35.0 L 245.0,25.0 L 240.0,21.0 L 236.0,18.0 L 231.0,15.0 L 219.0,9.0 L 214.0,7.0 L 211.0,6.0 L 208.0,5.0 L 204.0,4.0 L 199.0,3.0 L 194.0,2.0 Z M 242.0,250.0 L 245.0,251.0 L 245.0,289.0 L 243.0,291.0 L 238.0,294.0 L 223.0,303.0 L 216.0,306.0 L 190.0,322.0 L 183.0,325.0 L 176.0,330.0 L 169.0,333.0 L 164.0,337.0 L 156.0,341.0 L 151.0,343.0 L 148.0,344.0 L 145.0,345.0 L 141.0,346.0 L 136.0,347.0 L 113.0,347.0 L 108.0,346.0 L 104.0,345.0 L 101.0,344.0 L 98.0,343.0 L 93.0,341.0 L 87.0,338.0 L 84.0,336.0 L 81.0,334.0 L 77.0,331.0 L 64.0,318.0 L 58.0,309.0 L 56.0,305.0 L 53.0,299.0 L 50.0,290.0 L 49.0,285.0 L 48.0,278.0 L 48.0,265.0 L 50.0,259.0 L 52.0,259.0 L 54.0,260.0 L 56.0,261.0 L 68.0,268.0 L 73.0,272.0 L 87.0,279.0 L 108.0,292.0 L 129.0,304.0 L 135.0,307.0 L 140.0,308.0 L 144.0,307.0 L 150.0,304.0 L 157.0,300.0 L 169.0,292.0 L 183.0,285.0 L 190.0,281.0 L 216.0,265.0 Z M 263.0,189.0 L 265.0,189.0 L 267.0,190.0 L 276.0,196.0 L 288.0,202.0 L 293.0,205.0 L 296.0,207.0 L 298.0,209.0 L 298.0,312.0 L 297.0,318.0 L 296.0,322.0 L 293.0,331.0 L 291.0,335.0 L 288.0,341.0 L 285.0,346.0 L 281.0,351.0 L 269.0,363.0 L 262.0,368.0 L 258.0,370.0 L 250.0,374.0 L 241.0,377.0 L 237.0,378.0 L 232.0,379.0 L 212.0,379.0 L 206.0,378.0 L 202.0,377.0 L 199.0,376.0 L 196.0,375.0 L 191.0,373.0 L 185.0,370.0 L 180.0,367.0 L 176.0,364.0 L 176.0,359.0 L 177.0,359.0 L 179.0,357.0 L 184.0,354.0 L 222.0,332.0 L 236.0,325.0 L 243.0,320.0 L 250.0,317.0 L 255.0,314.0 L 258.0,312.0 L 260.0,310.0 L 261.0,308.0 L 262.0,306.0 Z M 199.0,153.0 L 203.0,153.0 L 206.0,155.0 L 210.0,157.0 L 217.0,162.0 L 224.0,165.0 L 236.0,173.0 L 241.0,175.0 L 243.0,177.0 L 244.0,177.0 L 245.0,228.0 L 243.0,230.0 L 236.0,233.0 L 231.0,237.0 L 224.0,241.0 L 217.0,244.0 L 210.0,249.0 L 205.0,252.0 L 203.0,253.0 L 198.0,253.0 L 195.0,251.0 L 188.0,247.0 L 158.0,230.0 L 156.0,228.0 L 156.0,179.0 L 160.0,175.0 L 164.0,173.0 L 174.0,167.0 L 193.0,156.0 Z M 252.0,122.0 L 255.0,122.0 L 257.0,123.0 L 259.0,124.0 L 266.0,128.0 L 273.0,133.0 L 280.0,136.0 L 287.0,140.0 L 325.0,162.0 L 337.0,169.0 L 340.0,171.0 L 343.0,173.0 L 348.0,178.0 L 355.0,184.0 L 359.0,189.0 L 362.0,193.0 L 365.0,198.0 L 368.0,204.0 L 370.0,209.0 L 371.0,212.0 L 373.0,219.0 L 374.0,225.0 L 374.0,244.0 L 373.0,250.0 L 372.0,254.0 L 369.0,263.0 L 367.0,267.0 L 364.0,273.0 L 361.0,278.0 L 357.0,283.0 L 346.0,294.0 L 342.0,297.0 L 339.0,299.0 L 336.0,301.0 L 328.0,305.0 L 323.0,304.0 L 323.0,205.0 L 322.0,203.0 L 318.0,199.0 L 313.0,196.0 L 294.0,185.0 L 261.0,167.0 L 228.0,147.0 L 223.0,145.0 L 221.0,144.0 L 221.0,140.0 L 224.0,139.0 L 231.0,134.0 L 238.0,131.0 L 245.0,126.0 Z M 74.0,101.0 L 78.0,102.0 L 78.0,200.0 L 79.0,202.0 L 80.0,204.0 L 83.0,207.0 L 88.0,210.0 L 100.0,217.0 L 107.0,220.0 L 119.0,228.0 L 133.0,235.0 L 159.0,251.0 L 178.0,261.0 L 180.0,263.0 L 180.0,265.0 L 177.0,268.0 L 173.0,270.0 L 158.0,278.0 L 151.0,283.0 L 149.0,284.0 L 146.0,284.0 L 144.0,283.0 L 142.0,282.0 L 135.0,278.0 L 121.0,270.0 L 95.0,254.0 L 69.0,240.0 L 64.0,237.0 L 61.0,235.0 L 58.0,233.0 L 52.0,228.0 L 47.0,223.0 L 42.0,217.0 L 36.0,208.0 L 33.0,202.0 L 29.0,190.0 L 28.0,186.0 L 27.0,179.0 L 27.0,163.0 L 28.0,157.0 L 29.0,153.0 L 30.0,149.0 L 31.0,146.0 L 33.0,141.0 L 37.0,133.0 L 39.0,130.0 L 41.0,127.0 L 45.0,122.0 L 54.0,113.0 L 58.0,110.0 L 62.0,107.0 L 65.0,105.0 L 71.0,102.0 Z M 265.0,59.0 L 288.0,59.0 L 293.0,60.0 L 297.0,61.0 L 300.0,62.0 L 303.0,63.0 L 310.0,66.0 L 312.0,67.0 L 314.0,68.0 L 323.0,74.0 L 337.0,88.0 L 340.0,92.0 L 343.0,97.0 L 345.0,101.0 L 348.0,107.0 L 349.0,110.0 L 350.0,113.0 L 351.0,117.0 L 352.0,121.0 L 353.0,128.0 L 353.0,142.0 L 351.0,147.0 L 349.0,147.0 L 347.0,146.0 L 345.0,145.0 L 333.0,137.0 L 319.0,129.0 L 293.0,115.0 L 274.0,103.0 L 266.0,99.0 L 261.0,98.0 L 257.0,99.0 L 255.0,100.0 L 253.0,101.0 L 239.0,110.0 L 225.0,117.0 L 220.0,121.0 L 213.0,125.0 L 187.0,140.0 L 163.0,153.0 L 159.0,156.0 L 156.0,155.0 L 156.0,118.0 L 157.0,116.0 L 158.0,115.0 L 161.0,114.0 L 163.0,112.0 L 168.0,110.0 L 175.0,105.0 L 182.0,102.0 L 201.0,90.0 L 227.0,75.0 L 243.0,66.0 L 250.0,63.0 L 253.0,62.0 L 260.0,60.0 Z M 170.0,27.0 L 188.0,27.0 L 194.0,28.0 L 198.0,29.0 L 202.0,30.0 L 205.0,31.0 L 210.0,33.0 L 216.0,36.0 L 221.0,39.0 L 224.0,41.0 L 227.0,44.0 L 226.0,47.0 L 224.0,48.0 L 221.0,49.0 L 207.0,58.0 L 179.0,73.0 L 174.0,77.0 L 167.0,81.0 L 155.0,87.0 L 145.0,93.0 L 140.0,98.0 L 139.0,101.0 L 138.0,217.0 L 136.0,217.0 L 134.0,216.0 L 125.0,210.0 L 113.0,204.0 L 108.0,201.0 L 105.0,199.0 L 103.0,197.0 L 103.0,95.0 L 104.0,89.0 L 105.0,84.0 L 106.0,81.0 L 107.0,78.0 L 109.0,73.0 L 113.0,65.0 L 116.0,60.0 L 120.0,55.0 L 132.0,43.0 L 141.0,37.0 L 145.0,35.0 L 151.0,32.0 L 154.0,31.0 L 157.0,30.0 L 161.0,29.0 L 165.0,28.0 Z" fill="#000000" fill-rule="evenodd"/>
</svg>
