<svg xmlns="http://www.w3.org/2000/svg" viewBox="0 0 371 375" width="371" height="375" shape-rendering="geometricPrecision">
  <path d="M 154.0,2.0 L 148.0,3.0 L 142.0,4.0 L 133.0,7.0 L 124.0,11.0 L 122.0,12.0 L 118.0,15.0 L 116.0,15.0 L 112.0,19.0 L 108.0,21.0 L 104.0,24.0 L 95.0,33.0 L 90.0,39.0 L 88.0,42.0 L 86.0,45.0 L 79.0,58.0 L 78.0,61.0 L 78.0,63.0 L 76.0,67.0 L 73.0,67.0 L 66.0,69.0 L 63.0,70.0 L 60.0,71.0 L 55.0,73.0 L 46.0,78.0 L 43.0,80.0 L 39.0,83.0 L 34.0,87.0 L 25.0,96.0 L 21.0,101.0 L 18.0,105.0 L 17.0,108.0 L 13.0,113.0 L 13.0,115.0 L 11.0,117.0 L 10.0,119.0 L 7.0,127.0 L 6.0,130.0 L 5.0,133.0 L 4.0,138.0 L 3.0,143.0 L 2.0,150.0 L 2.0,165.0 L 3.0,174.0 L 4.0,179.0 L 5.0,183.0 L 7.0,190.0 L 10.0,197.0 L 13.0,203.0 L 19.0,212.0 L 22.0,215.0 L 24.0,219.0 L 26.0,220.0 L 26.0,223.0 L 25.0,227.0 L 22.0,236.0 L 21.0,252.0 L 21.0,254.0 L 22.0,263.0 L 23.0,269.0 L 24.0,274.0 L 25.0,277.0 L 26.0,280.0 L 29.0,287.0 L 35.0,299.0 L 37.0,302.0 L 41.0,306.0 L 43.0,310.0 L 50.0,318.0 L 55.0,322.0 L 60.0,326.0 L 63.0,328.0 L 66.0,330.0 L 72.0,333.0 L 82.0,338.0 L 93.0,341.0 L 97.0,342.0 L 102.0,343.0 L 130.0,342.0 L 135.0,342.0 L 143.0,350.0 L 148.0,354.0 L 152.0,357.0 L 157.0,360.0 L 161.0,362.0 L 167.0,365.0 L 172.0,367.0 L 175.0,368.0 L 178.0,369.0 L 190.0,372.0 L 217.0,372.0 L 224.0,371.0 L 234.0,368.0 L 237.0,367.0 L 240.0,366.0 L 244.0,364.0 L 250.0,361.0 L 257.0,357.0 L 261.0,354.0 L 266.0,350.0 L 276.0,340.0 L 279.0,336.0 L 282.0,332.0 L 284.0,329.0 L 288.0,322.0 L 289.0,320.0 L 290.0,318.0 L 292.0,311.0 L 293.0,309.0 L 294.0,308.0 L 296.0,307.0 L 299.0,307.0 L 310.0,303.0 L 317.0,300.0 L 319.0,299.0 L 321.0,298.0 L 330.0,292.0 L 334.0,289.0 L 348.0,275.0 L 353.0,268.0 L 355.0,264.0 L 361.0,253.0 L 362.0,250.0 L 364.0,244.0 L 366.0,237.0 L 367.0,233.0 L 368.0,227.0 L 368.0,206.0 L 367.0,199.0 L 366.0,195.0 L 365.0,191.0 L 363.0,188.0 L 363.0,185.0 L 360.0,177.0 L 355.0,168.0 L 352.0,163.0 L 349.0,159.0 L 344.0,154.0 L 344.0,152.0 L 345.0,151.0 L 347.0,142.0 L 348.0,137.0 L 349.0,129.0 L 349.0,121.0 L 348.0,120.0 L 348.0,111.0 L 347.0,105.0 L 346.0,101.0 L 345.0,97.0 L 342.0,89.0 L 340.0,84.0 L 339.0,82.0 L 336.0,77.0 L 328.0,65.0 L 315.0,52.0 L 311.0,49.0 L 308.0,47.0 L 305.0,45.0 L 297.0,40.0 L 295.0,39.0 L 287.0,36.0 L 273.0,32.0 L 265.0,31.0 L 243.0,32.0 L 235.0,32.0 L 228.0,25.0 L 222.0,20.0 L 219.0,18.0 L 216.0,17.0 L 213.0,14.0 L 209.0,12.0 L 201.0,8.0 L 198.0,7.0 L 191.0,5.0 L 187.0,4.0 L 183.0,3.0 L 177.0,2.0 Z M 222.0,231.0 L 224.0,231.0 L 226.0,233.0 L 226.0,266.0 L 223.0,269.0 L 216.0,273.0 L 209.0,276.0 L 202.0,280.0 L 195.0,285.0 L 188.0,288.0 L 183.0,292.0 L 171.0,298.0 L 166.0,302.0 L 159.0,306.0 L 150.0,311.0 L 142.0,315.0 L 133.0,318.0 L 129.0,319.0 L 124.0,320.0 L 109.0,320.0 L 102.0,319.0 L 98.0,318.0 L 94.0,317.0 L 91.0,316.0 L 88.0,315.0 L 82.0,312.0 L 77.0,309.0 L 74.0,307.0 L 69.0,303.0 L 65.0,299.0 L 58.0,291.0 L 53.0,283.0 L 52.0,281.0 L 49.0,274.0 L 48.0,271.0 L 47.0,268.0 L 46.0,264.0 L 45.0,257.0 L 45.0,242.0 L 46.0,240.0 L 49.0,239.0 L 51.0,240.0 L 53.0,241.0 L 58.0,245.0 L 69.0,250.0 L 72.0,253.0 L 79.0,257.0 L 83.0,258.0 L 90.0,263.0 L 97.0,266.0 L 102.0,270.0 L 109.0,273.0 L 112.0,276.0 L 123.0,282.0 L 125.0,283.0 L 133.0,283.0 L 137.0,281.0 L 138.0,279.0 L 140.0,279.0 L 142.0,278.0 L 144.0,277.0 L 151.0,273.0 L 156.0,269.0 L 168.0,263.0 L 180.0,255.0 L 187.0,252.0 L 192.0,248.0 L 203.0,243.0 Z M 243.0,175.0 L 246.0,175.0 L 255.0,180.0 L 260.0,184.0 L 272.0,190.0 L 274.0,192.0 L 275.0,199.0 L 274.0,234.0 L 274.0,254.0 L 275.0,282.0 L 274.0,290.0 L 273.0,296.0 L 270.0,304.0 L 269.0,307.0 L 267.0,309.0 L 266.0,313.0 L 265.0,315.0 L 263.0,318.0 L 261.0,321.0 L 255.0,328.0 L 254.0,329.0 L 247.0,335.0 L 244.0,337.0 L 241.0,339.0 L 236.0,342.0 L 234.0,343.0 L 229.0,345.0 L 222.0,347.0 L 218.0,348.0 L 213.0,349.0 L 197.0,349.0 L 191.0,348.0 L 186.0,347.0 L 183.0,346.0 L 180.0,345.0 L 175.0,343.0 L 173.0,342.0 L 168.0,339.0 L 163.0,335.0 L 162.0,335.0 L 161.0,332.0 L 163.0,330.0 L 166.0,328.0 L 173.0,325.0 L 176.0,322.0 L 178.0,322.0 L 187.0,317.0 L 194.0,313.0 L 201.0,309.0 L 218.0,298.0 L 227.0,294.0 L 230.0,291.0 L 235.0,289.0 L 237.0,287.0 L 238.0,287.0 L 239.0,286.0 L 239.0,285.0 L 241.0,283.0 L 242.0,280.0 Z M 183.0,141.0 L 187.0,141.0 L 192.0,145.0 L 201.0,149.0 L 206.0,153.0 L 217.0,158.0 L 222.0,161.0 L 224.0,163.0 L 225.0,163.0 L 226.0,210.0 L 224.0,212.0 L 221.0,214.0 L 210.0,219.0 L 200.0,226.0 L 198.0,226.0 L 191.0,231.0 L 189.0,232.0 L 187.0,233.0 L 183.0,233.0 L 181.0,232.0 L 179.0,231.0 L 172.0,227.0 L 169.0,224.0 L 167.0,223.0 L 165.0,223.0 L 158.0,219.0 L 150.0,214.0 L 147.0,212.0 L 144.0,209.0 L 145.0,163.0 L 148.0,162.0 L 160.0,154.0 L 169.0,150.0 L 174.0,146.0 L 181.0,142.0 Z M 233.0,112.0 L 235.0,112.0 L 240.0,115.0 L 245.0,119.0 L 247.0,119.0 L 249.0,120.0 L 259.0,127.0 L 264.0,130.0 L 271.0,134.0 L 273.0,134.0 L 278.0,138.0 L 285.0,142.0 L 287.0,142.0 L 289.0,143.0 L 299.0,150.0 L 311.0,156.0 L 314.0,158.0 L 319.0,162.0 L 330.0,173.0 L 336.0,182.0 L 339.0,188.0 L 341.0,193.0 L 343.0,200.0 L 344.0,205.0 L 345.0,211.0 L 345.0,221.0 L 344.0,227.0 L 343.0,232.0 L 342.0,236.0 L 341.0,239.0 L 340.0,242.0 L 338.0,246.0 L 335.0,252.0 L 332.0,255.0 L 331.0,258.0 L 327.0,263.0 L 326.0,264.0 L 325.0,265.0 L 323.0,267.0 L 317.0,272.0 L 316.0,273.0 L 313.0,275.0 L 310.0,277.0 L 302.0,281.0 L 298.0,280.0 L 298.0,190.0 L 296.0,186.0 L 294.0,184.0 L 291.0,182.0 L 289.0,182.0 L 284.0,179.0 L 281.0,176.0 L 277.0,174.0 L 270.0,171.0 L 263.0,167.0 L 256.0,163.0 L 244.0,156.0 L 239.0,152.0 L 230.0,148.0 L 225.0,144.0 L 218.0,140.0 L 211.0,137.0 L 206.0,134.0 L 204.0,132.0 L 204.0,130.0 L 206.0,128.0 L 209.0,126.0 L 214.0,123.0 Z M 69.0,93.0 L 72.0,94.0 L 72.0,182.0 L 73.0,186.0 L 78.0,191.0 L 81.0,193.0 L 86.0,196.0 L 93.0,199.0 L 98.0,203.0 L 105.0,206.0 L 117.0,214.0 L 131.0,221.0 L 136.0,225.0 L 145.0,229.0 L 157.0,237.0 L 164.0,240.0 L 166.0,242.0 L 165.0,246.0 L 162.0,247.0 L 160.0,249.0 L 146.0,256.0 L 141.0,260.0 L 138.0,261.0 L 134.0,261.0 L 132.0,260.0 L 130.0,259.0 L 121.0,254.0 L 113.0,248.0 L 111.0,247.0 L 109.0,247.0 L 100.0,242.0 L 95.0,238.0 L 88.0,235.0 L 83.0,232.0 L 78.0,228.0 L 66.0,222.0 L 61.0,219.0 L 52.0,213.0 L 41.0,202.0 L 38.0,198.0 L 35.0,194.0 L 35.0,192.0 L 33.0,190.0 L 31.0,185.0 L 29.0,180.0 L 28.0,177.0 L 27.0,174.0 L 26.0,169.0 L 26.0,146.0 L 27.0,142.0 L 28.0,138.0 L 29.0,135.0 L 33.0,126.0 L 37.0,119.0 L 41.0,114.0 L 52.0,103.0 L 61.0,97.0 Z M 251.0,54.0 L 261.0,54.0 L 268.0,55.0 L 272.0,56.0 L 275.0,57.0 L 278.0,58.0 L 283.0,60.0 L 289.0,63.0 L 294.0,67.0 L 298.0,70.0 L 302.0,72.0 L 305.0,75.0 L 310.0,81.0 L 316.0,90.0 L 320.0,98.0 L 322.0,103.0 L 323.0,106.0 L 324.0,110.0 L 325.0,115.0 L 325.0,131.0 L 323.0,135.0 L 321.0,135.0 L 319.0,134.0 L 317.0,132.0 L 313.0,131.0 L 311.0,130.0 L 306.0,127.0 L 301.0,123.0 L 290.0,118.0 L 287.0,115.0 L 282.0,112.0 L 277.0,109.0 L 270.0,106.0 L 263.0,101.0 L 247.0,92.0 L 244.0,91.0 L 238.0,91.0 L 235.0,92.0 L 230.0,95.0 L 227.0,98.0 L 218.0,102.0 L 206.0,110.0 L 199.0,114.0 L 188.0,119.0 L 185.0,122.0 L 171.0,129.0 L 166.0,133.0 L 159.0,136.0 L 147.0,144.0 L 144.0,143.0 L 144.0,108.0 L 146.0,106.0 L 151.0,104.0 L 156.0,100.0 L 163.0,96.0 L 168.0,93.0 L 170.0,93.0 L 172.0,92.0 L 182.0,85.0 L 196.0,78.0 L 205.0,73.0 L 210.0,69.0 L 212.0,69.0 L 215.0,66.0 L 220.0,63.0 L 222.0,62.0 L 224.0,61.0 L 231.0,58.0 L 234.0,57.0 L 237.0,56.0 L 242.0,55.0 Z M 160.0,25.0 L 173.0,25.0 L 180.0,26.0 L 189.0,29.0 L 194.0,31.0 L 200.0,34.0 L 203.0,36.0 L 206.0,38.0 L 208.0,40.0 L 207.0,44.0 L 206.0,44.0 L 204.0,46.0 L 199.0,49.0 L 192.0,52.0 L 185.0,56.0 L 180.0,60.0 L 177.0,62.0 L 173.0,63.0 L 163.0,70.0 L 156.0,74.0 L 154.0,74.0 L 149.0,78.0 L 137.0,84.0 L 132.0,87.0 L 130.0,89.0 L 129.0,92.0 L 128.0,95.0 L 127.0,199.0 L 124.0,199.0 L 118.0,196.0 L 113.0,192.0 L 106.0,189.0 L 98.0,184.0 L 95.0,181.0 L 95.0,178.0 L 96.0,165.0 L 96.0,148.0 L 96.0,135.0 L 96.0,110.0 L 96.0,106.0 L 95.0,93.0 L 96.0,84.0 L 97.0,79.0 L 98.0,75.0 L 99.0,72.0 L 100.0,69.0 L 103.0,63.0 L 108.0,55.0 L 110.0,52.0 L 121.0,41.0 L 126.0,37.0 L 129.0,35.0 L 133.0,33.0 L 139.0,30.0 L 144.0,28.0 L 148.0,27.0 L 152.0,26.0 Z" fill="#ffffff" fill-rule="evenodd"/>
</svg>
